<svg width="133" height="90" viewBox="0 0 133 90" fill="none" xmlns="http://www.w3.org/2000/svg">
<path d="M69.1792 0.135536C68.2051 0.318192 66.3938 1.27711 65.5262 2.05338C64.7195 2.78398 57.6722 11.2925 53.7299 16.3154C53.319 16.8481 52.284 18.1267 51.4468 19.1617C50.6096 20.1815 48.8592 22.3429 47.5655 23.9563C46.2717 25.5545 44.0799 28.2638 42.71 29.9686C41.3249 31.6733 39.3461 34.1391 38.2959 35.4329C37.2457 36.7267 35.7083 38.6445 34.856 39.6948C26.1648 50.4255 17.1236 61.6434 12.953 66.8642C12.2224 67.7774 11.4918 68.6907 11.3244 68.8733C10.5633 69.7866 5.61653 76.2859 2.60278 80.3347C0.121767 83.6681 0 83.9116 0 85.5098C0 86.6362 0.0456628 86.8949 0.410966 87.5038C0.867594 88.28 1.91784 89.2998 2.67889 89.726C3.05941 89.9239 3.53126 90 4.49018 90C5.66219 90 5.87529 89.9391 6.77332 89.4825C9.36088 88.1583 14.4903 84.8553 19.8786 81.0653C21.3702 80.0151 30.1831 73.7593 32.4967 72.1154C33.6231 71.3087 35.0386 70.3193 35.617 69.9084C36.2106 69.4974 38.1285 68.1579 39.9093 66.9098C41.6902 65.6769 43.471 64.444 43.8668 64.1548C47.1849 61.826 53.5625 57.7012 54.8106 57.0771C56.8198 56.0725 59.9705 55.007 62.2537 54.5809C63.8367 54.2764 64.5673 54.2308 67.8093 54.246C72.1016 54.246 74.126 54.4895 78.1596 55.5093C87.4748 57.8838 95.3136 62.237 105.085 70.5172C106.379 71.5979 107.917 72.8917 108.51 73.3787C109.104 73.8658 109.606 74.3224 109.636 74.3833C109.652 74.4442 109.332 74.5203 108.891 74.5355C107.901 74.566 107.079 74.9008 107.079 75.2813C107.079 75.4336 107.247 75.7075 107.46 75.8902C107.673 76.0728 107.84 76.3164 107.84 76.4077C107.84 76.5142 107.506 77.2601 107.11 78.0516C106.501 79.2997 106.349 79.4975 106.014 79.4975C105.694 79.4975 105.557 79.3149 104.994 78.0516C104.644 77.2601 104.355 76.5599 104.355 76.499C104.34 76.4381 104.507 76.2098 104.72 75.9815C105.222 75.4488 105.162 75.1596 104.492 74.8095C104.035 74.5812 103.655 74.5507 101.98 74.5812C99.6363 74.6421 99.0123 74.8552 99.0123 75.6162C99.0123 75.9967 99.1036 76.1033 99.545 76.3011C100.123 76.5295 100.184 76.636 102.133 80.9435C104.142 85.3881 104.02 85.2054 104.994 85.2054C105.329 85.2054 105.618 85.0836 105.816 84.8705C105.999 84.6727 107.034 82.6939 108.13 80.4565C109.302 78.0972 110.276 76.2859 110.458 76.1489C111.113 75.6923 111.524 75.8597 113.259 77.2601C115.466 79.0257 116.577 79.4975 115.74 78.2951C113.64 75.2966 107.338 68.5841 100.458 62.0239C95.4962 57.2902 92.1324 54.3221 87.9771 50.9583C86.5768 49.8167 86.5463 49.7863 83.3803 47.3966C82.0561 46.392 80.7319 45.4026 80.4427 45.1743C80.1535 44.946 78.8445 44.048 77.5355 43.1499C73.6542 40.5167 72.0103 39.847 69.438 39.847C67.8093 39.847 66.9417 40.0296 65.1761 40.745C63.6388 41.3691 60.0466 42.5411 58.1592 43.0282C54.7041 43.9262 52.8928 42.9673 52.8928 40.2579C52.8928 38.127 54.1714 32.8758 55.2368 30.6383C56.4241 28.1421 61.0056 20.8665 64.8717 15.3413C67.8398 11.0946 68.1442 10.775 69.301 10.775C69.7424 10.775 70.0316 10.8815 70.2751 11.1098C71.097 11.9165 71.3558 12.6167 71.6907 14.9607C72.1016 17.8679 73.8977 22.9974 75.8308 26.8179C76.7288 28.5835 78.4488 31.3233 79.3011 32.3735C81.7365 35.3416 84.4002 37.5486 87.5204 39.2381C91.7366 41.5213 93.7763 42.9825 96.3638 45.5548C97.4445 46.6355 98.51 47.7467 98.7231 47.9902C98.9209 48.2489 99.4689 48.8882 99.9255 49.4362C100.382 49.9689 100.9 50.593 101.067 50.7908C101.235 51.0039 101.585 51.4149 101.843 51.7041C103.807 54.0025 108.038 59.4668 109.834 62.0696C113.685 67.61 115.755 71.0956 118.647 76.91C120.763 81.1719 121.6 82.3743 124.172 84.8553C126.182 86.7732 127.582 87.8691 128.998 88.6149C130.733 89.5282 132.514 89.8935 132.711 89.3759C132.894 88.9041 132.803 85.8751 132.559 84.901C132.148 83.1049 130.839 80.7152 128.419 77.2905C128.145 76.91 127.232 75.6162 126.395 74.3985C125.558 73.1809 124.309 71.3848 123.625 70.4106C122.94 69.4365 121.25 67.0012 119.85 65.0072C118.465 63.0133 116.06 59.5733 114.507 57.3511C112.955 55.1288 110.032 50.9583 108.023 48.0663C106.014 45.1743 104.218 42.602 104.035 42.3584C103.152 41.1103 97.9925 33.7129 93.761 27.5941C91.143 23.8193 88.1293 19.4814 87.0334 17.9288C85.9527 16.3763 84.735 14.6259 84.3241 14.0475C82.254 11.049 77.429 4.21475 76.9267 3.54503C74.8262 0.774818 72.1016 -0.427635 69.1792 0.135536Z" fill="white"/>
<path d="M54.6438 74.5352C54.0501 74.794 53.8066 75.2506 53.6544 76.3922C53.487 77.7316 53.3347 78.1882 52.2541 80.4866C50.9298 83.3177 50.8081 83.5003 50.1536 83.8352C49.423 84.2157 49.3164 84.7484 49.9253 85.0224C50.4123 85.2507 52.8477 85.266 53.4717 85.0376C54.2632 84.7637 54.2784 84.2462 53.5022 83.8048C53.0303 83.5308 52.9542 83.3025 53.1978 82.9219C53.3043 82.7393 53.6696 82.6936 54.8264 82.6936C56.592 82.6936 57.0943 82.8002 57.2009 83.2416C57.2618 83.4851 57.1704 83.6221 56.8356 83.8048C56.3485 84.0939 56.2115 84.3375 56.3485 84.6876C56.5007 85.0985 57.1095 85.2051 59.3014 85.2051C61.828 85.2051 62.4825 85.0224 62.4825 84.3375C62.4825 84.0026 62.3608 83.8656 61.9955 83.683C61.7367 83.5612 61.4627 83.3481 61.3866 83.2264C61.3257 83.1046 60.519 81.4607 59.6058 79.5733C57.5814 75.4028 56.9269 74.5504 55.7092 74.4591C55.283 74.4286 54.8112 74.4591 54.6438 74.5352ZM55.8919 79.5733C56.1658 80.03 56.3942 80.4714 56.3942 80.5779C56.3942 80.8062 55.1613 81.0041 54.5676 80.8671C54.0501 80.7453 54.0197 80.6236 54.3393 79.7255C54.8112 78.3861 55.1765 78.3557 55.8919 79.5733Z" fill="white"/>
<path d="M68.2653 74.536C66.5758 74.8708 64.7645 76.2864 64.0339 77.8694C62.938 80.1982 63.9882 83.1358 66.4236 84.5666C67.1542 84.9928 68.4936 85.3581 69.3765 85.3581C69.6809 85.3581 70.7007 85.1145 71.6139 84.8253C73.2121 84.2926 73.3035 84.2469 73.6688 83.6229C74.1254 82.8618 74.1558 82.1617 73.7753 81.8116C73.5166 81.5681 73.4405 81.5833 72.7555 82.0399C71.9184 82.5879 70.655 82.7705 69.757 82.4813C68.6002 82.1008 67.6869 80.7157 67.5499 79.1175C67.3977 77.4888 68.0218 76.5299 69.2395 76.5299C70.1527 76.5299 70.8377 76.9713 71.5987 78.0368C71.964 78.5543 72.4207 79.0414 72.6185 79.1175C73.1208 79.3154 73.8666 79.0109 74.1254 78.4934C74.7799 77.2301 73.7905 74.81 72.7251 75.0839C72.512 75.1296 71.827 74.9926 71.1421 74.7795C69.9244 74.399 69.2547 74.3381 68.2653 74.536Z" fill="white"/>
<path d="M80.0615 74.6118C78.92 74.901 78.0371 75.4185 77.1848 76.2861C76.0128 77.4734 75.6475 78.3105 75.6475 79.8783C75.6475 80.9894 75.7083 81.2938 76.0736 82.0244C76.9717 83.8814 78.7678 85.1143 80.8226 85.2969C81.7663 85.373 82.0707 85.3274 83.4101 84.9012C84.3082 84.5968 85.0997 84.2467 85.3584 84.0184C86.089 83.3334 86.2869 81.8722 85.6781 81.6439C85.5411 81.583 85.1606 81.7505 84.7496 82.0397C84.1103 82.4963 83.9733 82.5419 82.8926 82.5419C81.8424 82.5419 81.6445 82.4963 81.0661 82.1005C80.6247 81.7809 80.3051 81.3852 80.0007 80.7307C79.1939 79.0107 79.2548 77.6712 80.1681 76.9102C80.5943 76.5449 80.7617 76.4992 81.4314 76.5601C82.299 76.6362 82.7861 76.9254 83.3493 77.7169C84.2016 78.9041 84.4908 79.1629 84.9779 79.1477C85.2367 79.1477 85.5867 79.0564 85.7542 78.9802C86.5609 78.5388 86.4543 76.2861 85.602 75.4185C85.2367 75.0685 85.0844 75.0076 84.7039 75.0837C84.3995 75.1446 83.9581 75.0685 83.3949 74.8554C82.299 74.4596 81.0205 74.3531 80.0615 74.6118Z" fill="white"/>
<path d="M88.449 74.7178C87.5509 75.418 86.9877 77.4119 87.5053 78.0816C87.6118 78.2338 87.901 78.3556 88.1598 78.3556C88.662 78.3556 88.9969 78.1121 89.6514 77.2445C90.1689 76.5443 90.6712 76.5139 90.793 77.1988C90.8386 77.4424 90.8234 78.7818 90.7778 80.1821C90.6864 82.998 90.5951 83.3329 89.7427 83.6829C89.0882 83.9417 89.1035 84.4896 89.7732 84.855C90.1385 85.0528 90.7321 85.1289 92.2846 85.1746C93.3958 85.205 94.5526 85.1898 94.8265 85.1442C95.9377 84.9311 96.1812 84.033 95.2679 83.5003C94.9787 83.3329 94.6591 83.0132 94.583 82.8153C94.4003 82.3283 94.4003 77.5641 94.5982 77.077C94.8113 76.4987 95.3745 76.5443 95.7246 77.1684C95.892 77.4424 96.1508 77.8229 96.3182 78.0055C96.7291 78.4622 97.5206 78.4774 97.962 78.036C98.6318 77.3662 98.0381 75.3266 96.9727 74.6265C96.653 74.4134 96.4704 74.4134 95.5876 74.5656C94.5678 74.733 90.0928 74.6721 89.2709 74.4743C88.9969 74.3982 88.7534 74.4743 88.449 74.7178Z" fill="white"/>
<path d="M40.1085 74.7027C39.5758 74.8397 38.9974 75.3877 39.0887 75.6769C39.1191 75.7682 39.4083 75.9813 39.7432 76.164C40.489 76.5597 40.5347 76.8185 40.5499 80.5324C40.5651 83.5005 40.626 83.2569 39.5758 84.1093C39.4388 84.2311 39.3474 84.4746 39.3779 84.642C39.4388 85.0987 40.0019 85.1595 44.2334 85.2204C48.1147 85.2661 48.1147 85.2661 48.617 84.1245C49.1193 83.0438 49.0127 81.7348 48.4039 81.4913C47.9929 81.3391 47.719 81.5674 47.3993 82.3132C47.171 82.846 46.9427 83.1199 46.5774 83.2874C45.862 83.6374 44.9031 83.607 44.5226 83.2265C44.2334 82.9373 44.2181 82.7242 44.2181 79.6648V76.4075L44.7661 76.0726C45.1923 75.7987 45.2836 75.6464 45.2532 75.3268C45.2227 75.0224 45.0857 74.8854 44.6748 74.7484C44.0812 74.5505 40.9304 74.5201 40.1085 74.7027Z" fill="white"/>
</svg>
